<svg version="1.2" xmlns="http://www.w3.org/2000/svg" viewBox="0 0 320 85" width="320" height="85"><style>.a{fill:#ed2e24}.b{fill:#fefefe}</style><path class="a" d="m21.2 22.6c5.8 2.9 12.1 5.2 19 4.6 0.9 0 5.7-2.3-1.5-3.4-5.4-1.2-12.4-1.1-14.6-7-0.4-5.9 3.3-10.9 8.4-13.4 15.2-6.3 34-3.2 48.4 2.8l-4.6 11.1c-5.7-2.9-12.6-5.6-19.4-4.3-0.8 0.2-3.5 1.9 3.2 3.1 4.4 1.2 10.8 2.1 11.4 8 2.3 24.5-50.2 15.1-55.4 10.6z"/><path class="a" d="m175.1 1.3h-48.6c-6.4 3.7-12.8 8.8-19.3 12.8l5-12.8h-25.6c-5 12.1-9.9 24.6-14.5 37.2h24.9c1.7-3.9 3.1-7.7 4.9-11.4 2.9 3.7 5.4 7.6 8.4 11.4h30.2l-11-18.5 19.7-13.5 8.4 22.2-3.4 9.8h25l3.2-8.6 32.9-28.6h-26.2l-11.4 11.2z"/><path class="a" d="m280.5 57.6l7-19.1h-7.8l3.4-8.8h36.3l-3.7 8.8h-7.8l-8 19.1z"/><path class="a" d="m269.1 57.6h-38l10.7-27.9h38.3l-2.8 7.4h-17.3l-0.8 2.4c6.3 0.1 11 0.1 16.9 0l-2.6 6.6h-17.1l-1 2.6h17.3z"/><path class="a" d="m205.2 57.6c-1.6-3.2-2.6-6.3-4.3-9.4-1.4 3.2-2.9 6.1-4.1 9.4h-18l10.9-27.9h19.2l4.8 10.7 4.6-10.7h18.1l-10.9 27.9z"/><path class="a" d="m289.9 84.2h-290l8.6-21.7h290.1z"/><path class="b" d="m120 67h4.5c-2.3 3.2-4.8 6.6-7.5 9.9h-6.5l0.5-4.9-4.6 5-5.6-0.1-0.2-10h4.5v6.5l5.3-6.5c4.5 0.1 0 0 4.5 0.1l0.2 6.4z"/><path fill-rule="evenodd" class="b" d="m50.6 76.9l3.9-10.1c4.6 0 8.8-0.1 10.6 0.1 4.3 0.3 1.9 5.6-0.7 6 2 1.4-0.2 3.2 0 4h-4.6c-0.1-0.9 1.3-2 0-2.5h-3.6l-1.2 2.5zm9.9-5.2c1.7 0.1 3.3-2.3 0.2-2.3h-2.6l-1 2.3c0 0 1.8-0.1 3.4 0z"/><path fill-rule="evenodd" class="b" d="m225.3 77l3.9-10.1c4.6 0 8.8-0.2 10.6 0.1 4.3 0.3 1.9 5.5-0.7 6 2 1.3-0.2 3.2 0 4h-4.6c-0.1-0.9 1.3-2.1 0-2.6h-3.6l-1.2 2.6zm9.9-5.3c1.7 0.1 3.3-2.3 0.2-2.3h-2.6l-1 2.3c0 0 1.8-0.1 3.4 0z"/><path class="b" d="m197.3 71.8l-2.5-4.8h5.4l1.4 3 4.1-3h5.2l-6.3 5.2 2.6 4.7h-5.1l-2-3.2-4.2 3.2h-5.6z"/><path class="b" d="m127.7 76.9h-4.5l3.9-9.9h4.3z"/><path class="b" d="m71.9 66.9h4.4l-2.7 7.5h6.1l-1 2.6h-10.7z"/><path class="b" d="m30.2 67h4.6c-2.4 3.2-4.8 6.6-7.6 9.9h-6.4l0.4-4.9-4.5 5-5.7-0.1-0.2-10h4.5l0.1 6.5 5.2-6.5c4.5 0.1 0 0 4.5 0.1l0.2 6.4z"/><path class="b" d="m266.3 74.4c1.2 0.1 1.7-0.9 0-1.2 0 0-6.3 0.4-6-2.5 0.3-2.1 2.4-4 5.8-4h4.5c3.4 0.1 3.2 1.1 2.5 3.1h-3.8l0.2-0.8c0 0-2 0-3.4 0-1.6 0-1.8 1.4-0.3 1.4 0 0 1 0 2.9 0-0.4 0 3.7-0.2 3.6 1.8-0.1 3-1.5 4.8-8.5 4.8-6.8 0-5.1-1.8-4.6-3.3h4l-0.2 0.7z"/><path class="b" d="m283.5 74.4c1.2 0.1 1.7-0.9 0-1.2 0 0-6.3 0.4-6-2.5 0.3-2.1 2.4-4 5.8-4h4.5c3.4 0.1 3.2 1.1 2.5 3.1h-3.8l0.2-0.8c0 0-2 0-3.4 0-1.6 0-1.8 1.4-0.3 1.4 0 0 1 0 2.9 0-0.4 0 3.7-0.2 3.7 1.8-0.2 3-1.6 4.8-8.6 4.8-6.8 0-5.1-1.8-4.6-3.3h4l-0.2 0.7z"/><path fill-rule="evenodd" class="b" d="m81.4 77l3.7-10h9.5c6 0 4.8 10-4.7 10-9.8 0-8.5 0-8.5 0zm5-2.6h4c4.4-0.1 4.9-5.1 1.3-4.9 0 0-1.5 0.1-3.6 0z"/><path fill-rule="evenodd" class="b" d="m131.2 77l3.8-10h9.4c6 0 4.9 10-4.7 10-9.8 0-8.5 0-8.5 0zm5-2.6h4.1c4.3-0.1 4.9-5.1 1.2-4.9 0 0-1.5 0.1-3.6 0z"/><path fill-rule="evenodd" class="b" d="m49.7 71.2l-0.5 1.3c-0.9 2.5-4.4 4.4-7.8 4.4h-2.9c-3.4 0-5.4-2-4.5-4.4l0.5-1.4c0.9-2.4 4.4-4.4 7.8-4.4h2.9c3.4 0.1 5.4 2 4.5 4.5zm-6.3-1.8h-1c-1.2 0-2.5 0.9-3 2.1l-0.2 0.6c-0.5 1.2 0 2.2 1.1 2.2h1c1.2 0 2.5-1 3-2.1l0.3-0.7c0.5-1.1-0.1-2.1-1.2-2.1z"/><path fill-rule="evenodd" class="b" d="m213.1 67c3.8 0 10-0.2 11.3 0.6 2.1 1.3 0.5 6-3.6 6.7-2.5 0.2-1 0.1-6.1 0.2l-1.1 2.4h-4.5zm5.9 4.8c1.7 0.1 3.1-2.3 0.1-2.3h-2.5l-1 2.3c0 0 1.8-0.1 3.4 0z"/><path class="b" d="m160.1 76.9h-11.7l3.8-9.9h11.6l-1 2.5h-6.7l-0.4 1.4h6.4l-0.9 1.9h-6.2l-0.6 1.5h6.8z"/><path class="b" d="m187.7 76.9h-11.6l3.8-9.9h11.5l-1 2.5h-6.6l-0.5 1.4h6.4l-0.8 1.9h-6.3l-0.5 1.5h6.8z"/><path class="b" d="m254.6 76.9h-11.6l3.7-9.9h11.6l-1 2.5h-6.6l-0.5 1.4h6.4l-0.9 1.9h-6.2l-0.5 1.5h6.8z"/></svg>